# File created by Blade
# Date/Time:  Tue Jan 27 18:50:05 2015
# Frame Rate: 120.000 fps
#------------------------------------------------------
:FULLY-SPECIFIED
:DEGREES
3338
root -5.410601 32.195383 -8.117194 15.916981 -30.479347 -2.271090
Spine 1.161978 8.571083 -1.711249
Head 8.656031 17.189503 5.764343
LeftShoulder -16.062181 13.472465 17.025348
LeftArm 29.123833 -33.603451 -68.566083
LeftForeArm -35.394881 -0.000000 116.959485
LeftHand -21.951271 -0.000000 6.359416
LeftHandThumb1 -26.253704 0.000000 33.147579
RightShoulder 0.405639 15.011318 -16.303655
RightArm 31.098931 -35.899668 63.966916
RightForeArm -28.403572 0.000000 49.782399
RightHand -13.474941 -0.000000 6.881948
RightHandThumb1 -24.326973 -0.000000 -32.862282
LeftUpLeg -19.521949 -7.052051 0.258989
LeftLeg 12.520667 -0.000000 -0.000000
LeftFoot -19.122627 19.006920 -21.397602
LeftToeBase 10.250409 -0.000000 -0.000000
RightUpLeg -5.139146 -27.569491 -3.872582
RightLeg 19.992947 -0.000000 -0.000000
RightFoot -9.522994 -17.850914 26.750988
RightToeBase -15.680637 -0.000000 0.000000
3339
root -5.424517 32.188313 -8.078503 15.714770 -30.162027 -2.291717
Spine 1.229387 8.709431 -1.638466
Head 8.701161 17.058944 5.824879
LeftShoulder -16.392852 13.847001 16.810810
LeftArm 28.170618 -34.061367 -67.656581
LeftForeArm -35.878855 0.000000 117.038248
LeftHand -21.693399 -0.000000 6.456903
LeftHandThumb1 -26.253704 0.000000 33.147579
RightShoulder -0.093942 14.367199 -16.411118
RightArm 30.766982 -35.183203 62.757173
RightForeArm -28.260511 -0.000000 49.636204
RightHand -13.583846 0.000000 6.477881
RightHandThumb1 -24.326973 -0.000000 -32.862282
LeftUpLeg -19.372544 -6.971250 0.193764
LeftLeg 12.760251 -0.000000 -0.000000
LeftFoot -19.020337 18.887596 -20.889749
LeftToeBase 9.955983 -0.000000 -0.000000
RightUpLeg -4.675534 -27.785592 -3.938852
RightLeg 19.782801 -0.000000 -0.000000
RightFoot -9.526620 -17.999561 26.875071
RightToeBase -15.697426 -0.000000 0.000000
3340
root -5.437402 32.183382 -8.046689 15.624466 -29.916151 -2.282442
Spine 1.169721 8.878436 -1.657441
Head 8.739649 17.059517 5.988562
LeftShoulder -16.795392 14.222772 16.515932
LeftArm 27.233544 -34.441332 -66.603473
LeftForeArm -36.477413 -0.000000 117.053423
LeftHand -21.358404 -0.000000 7.039123
LeftHandThumb1 -26.253704 0.000000 33.147579
RightShoulder -0.536285 13.777981 -16.546933
RightArm 30.098554 -33.878286 62.397585
RightForeArm -28.549841 -0.000000 49.192448
RightHand -13.650273 -0.000000 6.897184
RightHandThumb1 -24.326973 -0.000000 -32.862282
LeftUpLeg -19.346229 -6.963776 0.174971
LeftLeg 12.980201 -0.000000 -0.000000
LeftFoot -19.229324 18.472523 -21.161893
LeftToeBase 10.266784 -0.000000 -0.000000
RightUpLeg -4.388389 -27.888069 -3.962522
RightLeg 19.588468 -0.000000 -0.000000
RightFoot -9.573836 -18.175282 27.058073
RightToeBase -15.685523 -0.000000 0.000000
3341
root -5.452247 32.177902 -8.015569 15.503332 -29.617308 -2.328606
Spine 1.175875 9.018976 -1.619798
Head 8.774363 16.954680 6.163051
LeftShoulder -17.192351 14.692166 16.242377
LeftArm 26.458261 -34.721220 -65.699522
LeftForeArm -36.883115 -0.000000 116.996003
LeftHand -20.823552 -0.000000 6.807059
LeftHandThumb1 -26.253704 0.000000 33.147579
RightShoulder -0.982309 13.292421 -16.642160
RightArm 29.482324 -32.893967 61.603091
RightForeArm -28.728054 -0.000000 48.834220
RightHand -13.293532 0.000000 7.342566
RightHandThumb1 -24.326973 -0.000000 -32.862282
LeftUpLeg -19.287372 -6.909687 0.178567
LeftLeg 13.248756 -0.000000 -0.000000
LeftFoot -19.284343 18.176842 -21.036029
LeftToeBase 10.253605 -0.000000 -0.000000
RightUpLeg -4.010941 -28.026190 -3.959248
RightLeg 19.360039 -0.000000 -0.000000
RightFoot -9.590984 -18.356903 27.215284
RightToeBase -15.688649 -0.000000 0.000000
3342
root -5.463361 32.171945 -7.981747 15.364519 -29.257992 -2.376914
Spine 1.216883 9.059865 -1.536486
Head 8.835088 16.745741 6.331365
LeftShoulder -17.419911 14.910736 16.095248
LeftArm 25.157293 -35.009350 -64.656826
LeftForeArm -37.291329 -0.000000 116.979768
LeftHand -20.152789 -0.000000 6.638406
LeftHandThumb1 -26.253704 0.000000 33.147579
RightShoulder -1.430921 12.785943 -16.788267
RightArm 28.978862 -32.029373 60.789090
RightForeArm -28.643806 0.000000 48.379342
RightHand -13.347971 -0.000000 7.084904
RightHandThumb1 -24.326973 -0.000000 -32.862282
LeftUpLeg -19.212211 -6.932410 0.197664
LeftLeg 13.504666 -0.000000 -0.000000
LeftFoot -19.336772 17.893634 -20.887216
LeftToeBase 10.251169 -0.000000 -0.000000
RightUpLeg -3.592096 -28.177789 -3.964026
RightLeg 19.116629 -0.000000 -0.000000
RightFoot -9.615420 -18.549320 27.451596
RightToeBase -15.612792 -0.000000 0.000000
3343
root -5.474114 32.164924 -7.949559 15.259387 -28.968969 -2.395272
Spine 1.183925 9.106569 -1.510189
Head 8.923369 16.770501 6.492656
LeftShoulder -17.520470 15.260706 15.916805
LeftArm 23.828382 -35.501939 -63.658440
LeftForeArm -37.815339 -0.000000 116.999556
LeftHand -19.448940 -0.000000 6.348385
LeftHandThumb1 -26.253704 0.000000 33.147579
RightShoulder -1.792349 12.251820 -16.940436
RightArm 28.482326 -31.093161 60.066125
RightForeArm -28.738894 -0.000000 47.900702
RightHand -13.677262 -0.000000 7.215099
RightHandThumb1 -24.326973 -0.000000 -32.862282
LeftUpLeg -19.168740 -6.902575 0.178852
LeftLeg 13.720322 -0.000000 -0.000000
LeftFoot -19.378761 17.577522 -20.749722
LeftToeBase 10.341592 -0.000000 -0.000000
RightUpLeg -3.265580 -28.269634 -3.979698
RightLeg 18.928386 -0.000000 -0.000000
RightFoot -9.638166 -18.752689 27.580012
RightToeBase -15.736230 -0.000000 0.000000
3344
root -5.480507 32.157486 -7.920481 15.164509 -28.677168 -2.408013
Spine 1.143772 9.146112 -1.529542
Head 9.005470 16.646275 6.743673
LeftShoulder -17.642482 15.531600 15.878859
LeftArm 22.469997 -35.751968 -62.775570
LeftForeArm -38.190625 -0.000000 116.983446
LeftHand -18.633550 -0.000000 6.300747
LeftHandThumb1 -26.253704 0.000000 33.147579
RightShoulder -2.229738 11.615147 -16.992607
RightArm 28.299035 -30.247715 59.007906
RightForeArm -28.339244 -0.000000 47.321512
RightHand -13.860983 -0.000000 6.784075
RightHandThumb1 -24.326973 -0.000000 -32.862282
LeftUpLeg -19.159022 -6.869769 0.128723
LeftLeg 13.959469 -0.000000 -0.000000
LeftFoot -19.292265 17.513317 -20.302310
LeftToeBase 9.976159 -0.000000 -0.000000
RightUpLeg -2.976171 -28.308577 -3.989036
RightLeg 18.778917 -0.000000 -0.000000
RightFoot -9.738056 -18.930869 27.841877
RightToeBase -15.635249 -0.000000 0.000000
3345
root -5.490001 32.150004 -7.891122 15.109821 -28.438786 -2.428550
Spine 1.058780 9.207114 -1.569347
Head 9.112723 16.539306 7.033589
LeftShoulder -17.514670 15.404658 16.026949
LeftArm 20.346408 -36.010582 -61.552957
LeftForeArm -38.635673 -0.000000 117.112260
LeftHand -18.008294 0.000000 6.476495
LeftHandThumb1 -26.253704 0.000000 33.147579
RightShoulder -2.711780 11.173854 -17.091283
RightArm 27.971213 -29.547404 58.137076
RightForeArm -28.079703 -0.000000 46.669086
RightHand -13.890698 -0.000000 6.734576
RightHandThumb1 -24.326973 -0.000000 -32.862282
LeftUpLeg -19.169805 -6.890405 0.123926
LeftLeg 14.200739 -0.000000 -0.000000
LeftFoot -19.393155 17.444904 -20.216294
LeftToeBase 9.869489 -0.000000 -0.000000
RightUpLeg -2.721100 -28.280370 -3.975042
RightLeg 18.591871 -0.000000 -0.000000
RightFoot -9.824891 -19.177273 28.022582
RightToeBase -15.593965 -0.000000 0.000000
3346
root -5.499054 32.146497 -7.866646 15.043265 -28.072537 -2.457471
Spine 1.040858 9.102497 -1.549427
Head 9.134373 16.420724 7.205254
LeftShoulder -18.160368 16.115047 15.504819
LeftArm 20.285991 -36.117062 -61.174001
LeftForeArm -38.613517 -0.000000 116.870751
LeftHand -17.714079 -0.000000 6.928090
LeftHandThumb1 -26.253704 0.000000 33.147579
RightShoulder -2.884309 10.855796 -17.260293
RightArm 27.076221 -28.631584 57.677478
RightForeArm -28.237043 -0.000000 46.332256
RightHand -14.246556 -0.000000 6.345064
RightHandThumb1 -24.326973 -0.000000 -32.862282
LeftUpLeg -19.187353 -7.107081 0.191250
LeftLeg 14.439178 -0.000000 -0.000000
LeftFoot -19.496405 17.317954 -20.231755
LeftToeBase 9.910630 -0.000000 -0.000000
RightUpLeg -2.438641 -28.284582 -3.928627
RightLeg 18.394718 -0.000000 -0.000000
RightFoot -9.956576 -19.482555 28.332091
RightToeBase -15.295602 -0.000000 0.000000
3347
root -5.507735 32.143018 -7.838692 14.975430 -27.770516 -2.471470
Spine 0.996861 9.099171 -1.574776
Head 9.212860 16.223822 7.464589
LeftShoulder -18.618623 16.763622 15.084305
LeftArm 20.044651 -36.289236 -60.838996
LeftForeArm -38.387141 0.000000 116.685407
LeftHand -17.512874 -0.000000 7.462617
LeftHandThumb1 -26.253704 0.000000 33.147579
RightShoulder -3.107830 10.305355 -17.418368
RightArm 26.417300 -27.519183 57.151841
RightForeArm -27.936252 -0.000000 45.966072
RightHand -14.342898 -0.000000 6.546199
RightHandThumb1 -24.326973 -0.000000 -32.862282
LeftUpLeg -19.184261 -7.217259 0.204345
LeftLeg 14.635571 -0.000000 -0.000000
LeftFoot -19.533221 17.215955 -20.136133
LeftToeBase 9.904668 -0.000000 -0.000000
RightUpLeg -2.164765 -28.246192 -3.905204
RightLeg 18.202187 -0.000000 -0.000000
RightFoot -9.967364 -19.740508 28.456880
RightToeBase -15.559001 -0.000000 0.000000
3348
root -5.514460 32.138198 -7.814779 14.910212 -27.504333 -2.484108
Spine 0.988064 9.048620 -1.600476
Head 9.227251 16.119107 7.677821
LeftShoulder -18.870978 16.971362 14.883167
LeftArm 18.990464 -36.449007 -60.218293
LeftForeArm -38.106711 -0.000000 116.605212
LeftHand -17.235066 -0.000000 7.960925
LeftHandThumb1 -26.253704 0.000000 33.147579
RightShoulder -3.410696 9.826884 -17.585196
RightArm 25.950943 -26.609004 56.532694
RightForeArm -27.813187 -0.000000 45.493337
RightHand -14.397500 -0.000000 6.595273
RightHandThumb1 -24.326973 -0.000000 -32.862282
LeftUpLeg -19.197276 -7.494468 0.263962
LeftLeg 14.839103 -0.000000 -0.000000
LeftFoot -19.669117 17.157625 -20.224159
LeftToeBase 9.915781 -0.000000 -0.000000
RightUpLeg -1.945344 -28.159834 -3.879538
RightLeg 18.076563 -0.000000 -0.000000
RightFoot -10.067143 -20.034498 28.599079
RightToeBase -15.502097 -0.000000 0.000000
3349
root -5.535509 32.131853 -7.765725 14.736576 -27.251456 -2.465003
Spine 0.962174 9.013889 -1.701787
Head 9.453093 15.920463 8.011933
LeftShoulder -19.135473 17.337842 14.742636
LeftArm 18.199941 -36.552385 -59.885589
LeftForeArm -37.836781 -0.000000 116.464499
LeftHand -17.079236 -0.000000 8.421364
LeftHandThumb1 -26.253704 0.000000 33.147579
RightShoulder -3.725411 9.296396 -17.605624
RightArm 25.535738 -25.760447 55.828196
RightForeArm -27.649340 -0.000000 44.961308
RightHand -14.273605 -0.000000 6.573150
RightHandThumb1 -24.326973 -0.000000 -32.862282
LeftUpLeg -18.977133 -7.642651 0.245319
LeftLeg 14.886139 -0.000000 -0.000000
LeftFoot -19.769763 17.038618 -20.208254
LeftToeBase 9.936733 -0.000000 -0.000000
RightUpLeg -1.453958 -28.007337 -3.962658
RightLeg 17.722722 -0.000000 -0.000000
RightFoot -10.112955 -20.326750 28.828199
RightToeBase -15.528432 -0.000000 0.000000
